G04*
G04 #@! TF.GenerationSoftware,Altium Limited,Altium Designer,22.9.1 (49)*
G04*
G04 Layer_Color=16711935*
%FSLAX44Y44*%
%MOMM*%
G71*
G04*
G04 #@! TF.SameCoordinates,B5FEB32B-E54B-4D09-B02F-23BE752CD7F3*
G04*
G04*
G04 #@! TF.FilePolarity,Positive*
G04*
G01*
G75*
%ADD11C,0.2000*%
G36*
X178272Y52309D02*
Y52300D01*
Y52272D01*
Y52235D01*
Y52180D01*
X178263Y52106D01*
Y52032D01*
X178245Y51856D01*
X178226Y51653D01*
X178189Y51440D01*
X178134Y51246D01*
X178069Y51061D01*
Y51052D01*
X178060Y51042D01*
X178032Y50987D01*
X177986Y50913D01*
X177921Y50811D01*
X177829Y50710D01*
X177727Y50599D01*
X177598Y50488D01*
X177450Y50395D01*
X177431Y50386D01*
X177376Y50358D01*
X177292Y50321D01*
X177172Y50284D01*
X177024Y50238D01*
X176858Y50201D01*
X176673Y50173D01*
X176469Y50164D01*
X176386D01*
X176331Y50173D01*
X176257Y50183D01*
X176183Y50192D01*
X175989Y50229D01*
X175785Y50284D01*
X175573Y50367D01*
X175462Y50423D01*
X175360Y50488D01*
X175268Y50562D01*
X175175Y50645D01*
X175166Y50654D01*
X175157Y50663D01*
X175138Y50700D01*
X175110Y50737D01*
X175074Y50784D01*
X175037Y50848D01*
X175000Y50922D01*
X174953Y51005D01*
X174916Y51098D01*
X174879Y51209D01*
X174842Y51320D01*
X174805Y51449D01*
X174787Y51588D01*
X174759Y51745D01*
X174750Y51902D01*
Y52078D01*
X175517Y52189D01*
Y52180D01*
Y52161D01*
Y52124D01*
X175527Y52069D01*
X175536Y52013D01*
Y51948D01*
X175564Y51791D01*
X175591Y51625D01*
X175647Y51459D01*
X175702Y51311D01*
X175739Y51246D01*
X175785Y51190D01*
X175795Y51181D01*
X175832Y51153D01*
X175887Y51107D01*
X175961Y51061D01*
X176063Y51005D01*
X176174Y50968D01*
X176312Y50932D01*
X176460Y50922D01*
X176516D01*
X176571Y50932D01*
X176654Y50941D01*
X176738Y50959D01*
X176830Y50978D01*
X176923Y51015D01*
X177015Y51061D01*
X177024Y51070D01*
X177052Y51089D01*
X177089Y51126D01*
X177145Y51163D01*
X177191Y51227D01*
X177246Y51292D01*
X177292Y51366D01*
X177329Y51459D01*
Y51468D01*
X177348Y51505D01*
X177357Y51569D01*
X177376Y51653D01*
X177394Y51764D01*
X177403Y51902D01*
X177422Y52069D01*
Y52263D01*
Y56673D01*
X178272D01*
Y52309D01*
D02*
G37*
G36*
X192659Y56664D02*
X192742D01*
X192936Y56655D01*
X193139Y56627D01*
X193361Y56599D01*
X193565Y56553D01*
X193666Y56525D01*
X193750Y56497D01*
X193759D01*
X193768Y56488D01*
X193824Y56460D01*
X193907Y56423D01*
X194009Y56359D01*
X194119Y56275D01*
X194240Y56164D01*
X194350Y56035D01*
X194461Y55887D01*
Y55878D01*
X194471Y55869D01*
X194508Y55813D01*
X194545Y55721D01*
X194600Y55601D01*
X194646Y55462D01*
X194693Y55295D01*
X194720Y55120D01*
X194730Y54926D01*
Y54916D01*
Y54898D01*
Y54861D01*
X194720Y54815D01*
Y54750D01*
X194711Y54685D01*
X194674Y54528D01*
X194619Y54343D01*
X194545Y54149D01*
X194434Y53955D01*
X194360Y53862D01*
X194286Y53770D01*
X194277Y53761D01*
X194267Y53751D01*
X194240Y53724D01*
X194203Y53696D01*
X194156Y53659D01*
X194101Y53622D01*
X194027Y53576D01*
X193953Y53520D01*
X193860Y53474D01*
X193759Y53428D01*
X193648Y53372D01*
X193528Y53326D01*
X193389Y53289D01*
X193250Y53243D01*
X193093Y53215D01*
X192927Y53187D01*
X192945Y53178D01*
X192982Y53160D01*
X193038Y53123D01*
X193112Y53086D01*
X193278Y52984D01*
X193361Y52919D01*
X193435Y52864D01*
X193454Y52845D01*
X193500Y52799D01*
X193574Y52725D01*
X193666Y52633D01*
X193768Y52503D01*
X193888Y52365D01*
X194009Y52198D01*
X194138Y52013D01*
X195238Y50275D01*
X194184D01*
X193343Y51606D01*
Y51616D01*
X193324Y51634D01*
X193306Y51662D01*
X193278Y51699D01*
X193213Y51801D01*
X193130Y51930D01*
X193028Y52069D01*
X192927Y52217D01*
X192825Y52355D01*
X192733Y52485D01*
X192723Y52494D01*
X192696Y52531D01*
X192649Y52586D01*
X192585Y52651D01*
X192446Y52790D01*
X192372Y52855D01*
X192298Y52910D01*
X192289Y52919D01*
X192270Y52929D01*
X192233Y52947D01*
X192178Y52975D01*
X192122Y53003D01*
X192058Y53030D01*
X191910Y53076D01*
X191901D01*
X191882Y53086D01*
X191845D01*
X191799Y53095D01*
X191734Y53104D01*
X191660D01*
X191558Y53113D01*
X190467D01*
Y50275D01*
X189617D01*
Y56673D01*
X192585D01*
X192659Y56664D01*
D02*
G37*
G36*
X181610Y56691D02*
X181684Y56682D01*
X181777Y56673D01*
X181878Y56655D01*
X181980Y56636D01*
X182220Y56571D01*
X182461Y56479D01*
X182581Y56423D01*
X182701Y56359D01*
X182812Y56275D01*
X182914Y56183D01*
X182923Y56174D01*
X182941Y56164D01*
X182960Y56128D01*
X182997Y56090D01*
X183043Y56044D01*
X183089Y55980D01*
X183136Y55915D01*
X183191Y55832D01*
X183284Y55656D01*
X183376Y55434D01*
X183413Y55323D01*
X183431Y55194D01*
X183450Y55064D01*
X183459Y54926D01*
Y54907D01*
Y54861D01*
X183450Y54787D01*
X183441Y54685D01*
X183422Y54574D01*
X183385Y54445D01*
X183348Y54306D01*
X183293Y54167D01*
X183284Y54149D01*
X183265Y54103D01*
X183228Y54029D01*
X183173Y53927D01*
X183099Y53816D01*
X183006Y53677D01*
X182895Y53539D01*
X182766Y53382D01*
X182747Y53363D01*
X182701Y53308D01*
X182655Y53261D01*
X182609Y53215D01*
X182553Y53160D01*
X182479Y53086D01*
X182405Y53012D01*
X182313Y52929D01*
X182220Y52836D01*
X182109Y52734D01*
X181989Y52633D01*
X181860Y52512D01*
X181712Y52392D01*
X181564Y52263D01*
X181555Y52254D01*
X181536Y52235D01*
X181499Y52207D01*
X181453Y52170D01*
X181397Y52115D01*
X181333Y52059D01*
X181185Y51939D01*
X181028Y51801D01*
X180880Y51662D01*
X180750Y51542D01*
X180695Y51495D01*
X180649Y51449D01*
X180639Y51440D01*
X180612Y51412D01*
X180575Y51375D01*
X180528Y51320D01*
X180482Y51255D01*
X180427Y51190D01*
X180316Y51033D01*
X183468D01*
Y50275D01*
X179225D01*
Y50284D01*
Y50321D01*
Y50377D01*
X179234Y50451D01*
X179243Y50534D01*
X179262Y50626D01*
X179280Y50719D01*
X179317Y50820D01*
Y50830D01*
X179326Y50839D01*
X179345Y50894D01*
X179382Y50978D01*
X179437Y51089D01*
X179511Y51218D01*
X179604Y51366D01*
X179706Y51514D01*
X179835Y51671D01*
Y51680D01*
X179853Y51690D01*
X179900Y51745D01*
X179983Y51828D01*
X180103Y51948D01*
X180242Y52087D01*
X180417Y52254D01*
X180630Y52439D01*
X180861Y52633D01*
X180870Y52642D01*
X180907Y52670D01*
X180963Y52716D01*
X181028Y52771D01*
X181111Y52845D01*
X181213Y52929D01*
X181314Y53021D01*
X181434Y53123D01*
X181666Y53345D01*
X181897Y53566D01*
X182008Y53677D01*
X182109Y53788D01*
X182202Y53890D01*
X182276Y53992D01*
Y54001D01*
X182294Y54010D01*
X182313Y54038D01*
X182331Y54075D01*
X182396Y54177D01*
X182470Y54297D01*
X182535Y54445D01*
X182599Y54602D01*
X182636Y54778D01*
X182655Y54944D01*
Y54953D01*
Y54963D01*
X182646Y55018D01*
X182636Y55111D01*
X182609Y55212D01*
X182572Y55342D01*
X182507Y55471D01*
X182424Y55601D01*
X182313Y55730D01*
X182294Y55748D01*
X182248Y55785D01*
X182183Y55832D01*
X182082Y55896D01*
X181952Y55952D01*
X181804Y56007D01*
X181629Y56044D01*
X181434Y56054D01*
X181379D01*
X181342Y56044D01*
X181231Y56035D01*
X181102Y56007D01*
X180963Y55970D01*
X180806Y55906D01*
X180658Y55822D01*
X180519Y55711D01*
X180501Y55693D01*
X180464Y55647D01*
X180408Y55573D01*
X180353Y55462D01*
X180288Y55332D01*
X180233Y55166D01*
X180196Y54981D01*
X180177Y54768D01*
X179373Y54852D01*
Y54861D01*
X179382Y54889D01*
Y54935D01*
X179391Y54999D01*
X179410Y55073D01*
X179428Y55157D01*
X179456Y55258D01*
X179484Y55360D01*
X179558Y55582D01*
X179669Y55804D01*
X179733Y55915D01*
X179816Y56026D01*
X179900Y56128D01*
X179992Y56220D01*
X180001Y56229D01*
X180020Y56238D01*
X180048Y56266D01*
X180094Y56294D01*
X180149Y56331D01*
X180214Y56368D01*
X180288Y56414D01*
X180380Y56460D01*
X180482Y56507D01*
X180593Y56553D01*
X180713Y56590D01*
X180843Y56627D01*
X180981Y56655D01*
X181129Y56682D01*
X181287Y56691D01*
X181453Y56701D01*
X181545D01*
X181610Y56691D01*
D02*
G37*
G36*
X189007Y48500D02*
X183801D01*
Y49064D01*
X189007D01*
Y48500D01*
D02*
G37*
G36*
X66273Y50645D02*
Y50635D01*
Y50608D01*
Y50571D01*
Y50515D01*
X66263Y50441D01*
Y50367D01*
X66245Y50192D01*
X66226Y49988D01*
X66189Y49776D01*
X66134Y49581D01*
X66069Y49397D01*
Y49387D01*
X66060Y49378D01*
X66032Y49323D01*
X65986Y49249D01*
X65921Y49147D01*
X65829Y49045D01*
X65727Y48934D01*
X65598Y48823D01*
X65450Y48731D01*
X65431Y48722D01*
X65376Y48694D01*
X65293Y48657D01*
X65172Y48620D01*
X65024Y48574D01*
X64858Y48537D01*
X64673Y48509D01*
X64470Y48500D01*
X64387D01*
X64331Y48509D01*
X64257Y48518D01*
X64183Y48527D01*
X63989Y48564D01*
X63786Y48620D01*
X63573Y48703D01*
X63462Y48759D01*
X63360Y48823D01*
X63268Y48897D01*
X63175Y48980D01*
X63166Y48990D01*
X63157Y48999D01*
X63138Y49036D01*
X63111Y49073D01*
X63074Y49119D01*
X63037Y49184D01*
X63000Y49258D01*
X62953Y49341D01*
X62916Y49433D01*
X62880Y49545D01*
X62842Y49655D01*
X62806Y49785D01*
X62787Y49924D01*
X62759Y50081D01*
X62750Y50238D01*
Y50414D01*
X63517Y50525D01*
Y50515D01*
Y50497D01*
Y50460D01*
X63527Y50404D01*
X63536Y50349D01*
Y50284D01*
X63564Y50127D01*
X63591Y49960D01*
X63647Y49794D01*
X63702Y49646D01*
X63739Y49581D01*
X63786Y49526D01*
X63795Y49517D01*
X63832Y49489D01*
X63887Y49443D01*
X63961Y49397D01*
X64063Y49341D01*
X64174Y49304D01*
X64313Y49267D01*
X64461Y49258D01*
X64516D01*
X64571Y49267D01*
X64655Y49276D01*
X64738Y49295D01*
X64830Y49313D01*
X64923Y49350D01*
X65015Y49397D01*
X65024Y49406D01*
X65052Y49424D01*
X65089Y49461D01*
X65145Y49498D01*
X65191Y49563D01*
X65246Y49628D01*
X65293Y49702D01*
X65329Y49794D01*
Y49803D01*
X65348Y49840D01*
X65357Y49905D01*
X65376Y49988D01*
X65394Y50099D01*
X65403Y50238D01*
X65422Y50404D01*
Y50599D01*
Y55009D01*
X66273D01*
Y50645D01*
D02*
G37*
G36*
X69610Y55027D02*
X69684Y55018D01*
X69777Y55009D01*
X69878Y54990D01*
X69980Y54972D01*
X70220Y54907D01*
X70461Y54815D01*
X70581Y54759D01*
X70701Y54694D01*
X70812Y54611D01*
X70914Y54519D01*
X70923Y54509D01*
X70942Y54500D01*
X70960Y54463D01*
X70997Y54426D01*
X71043Y54380D01*
X71090Y54315D01*
X71136Y54250D01*
X71191Y54167D01*
X71284Y53992D01*
X71376Y53770D01*
X71413Y53659D01*
X71432Y53529D01*
X71450Y53400D01*
X71459Y53261D01*
Y53243D01*
Y53197D01*
X71450Y53123D01*
X71441Y53021D01*
X71422Y52910D01*
X71385Y52780D01*
X71348Y52642D01*
X71293Y52503D01*
X71284Y52485D01*
X71265Y52438D01*
X71228Y52364D01*
X71173Y52263D01*
X71099Y52152D01*
X71006Y52013D01*
X70895Y51874D01*
X70766Y51717D01*
X70747Y51699D01*
X70701Y51643D01*
X70655Y51597D01*
X70609Y51551D01*
X70553Y51495D01*
X70479Y51421D01*
X70405Y51347D01*
X70313Y51264D01*
X70220Y51172D01*
X70110Y51070D01*
X69989Y50968D01*
X69860Y50848D01*
X69712Y50728D01*
X69564Y50599D01*
X69555Y50589D01*
X69536Y50571D01*
X69499Y50543D01*
X69453Y50506D01*
X69398Y50451D01*
X69333Y50395D01*
X69185Y50275D01*
X69028Y50136D01*
X68880Y49998D01*
X68750Y49877D01*
X68695Y49831D01*
X68649Y49785D01*
X68639Y49776D01*
X68612Y49748D01*
X68575Y49711D01*
X68528Y49655D01*
X68482Y49591D01*
X68427Y49526D01*
X68316Y49369D01*
X71469D01*
Y48611D01*
X67225D01*
Y48620D01*
Y48657D01*
Y48712D01*
X67234Y48786D01*
X67243Y48870D01*
X67262Y48962D01*
X67280Y49054D01*
X67317Y49156D01*
Y49165D01*
X67327Y49175D01*
X67345Y49230D01*
X67382Y49313D01*
X67438Y49424D01*
X67512Y49554D01*
X67604Y49702D01*
X67706Y49850D01*
X67835Y50007D01*
Y50016D01*
X67854Y50025D01*
X67900Y50081D01*
X67983Y50164D01*
X68103Y50284D01*
X68242Y50423D01*
X68418Y50589D01*
X68630Y50774D01*
X68861Y50968D01*
X68871Y50978D01*
X68908Y51005D01*
X68963Y51052D01*
X69028Y51107D01*
X69111Y51181D01*
X69213Y51264D01*
X69314Y51357D01*
X69435Y51458D01*
X69666Y51680D01*
X69897Y51902D01*
X70008Y52013D01*
X70110Y52124D01*
X70202Y52226D01*
X70276Y52327D01*
Y52337D01*
X70294Y52346D01*
X70313Y52374D01*
X70331Y52411D01*
X70396Y52512D01*
X70470Y52632D01*
X70535Y52780D01*
X70599Y52938D01*
X70637Y53113D01*
X70655Y53280D01*
Y53289D01*
Y53298D01*
X70646Y53354D01*
X70637Y53446D01*
X70609Y53548D01*
X70572Y53677D01*
X70507Y53807D01*
X70424Y53936D01*
X70313Y54066D01*
X70294Y54084D01*
X70248Y54121D01*
X70184Y54167D01*
X70082Y54232D01*
X69952Y54288D01*
X69804Y54343D01*
X69629Y54380D01*
X69435Y54389D01*
X69379D01*
X69342Y54380D01*
X69231Y54371D01*
X69102Y54343D01*
X68963Y54306D01*
X68806Y54241D01*
X68658Y54158D01*
X68519Y54047D01*
X68501Y54029D01*
X68464Y53982D01*
X68408Y53908D01*
X68353Y53797D01*
X68288Y53668D01*
X68233Y53502D01*
X68196Y53317D01*
X68177Y53104D01*
X67373Y53187D01*
Y53197D01*
X67382Y53224D01*
Y53271D01*
X67391Y53335D01*
X67410Y53409D01*
X67428Y53492D01*
X67456Y53594D01*
X67484Y53696D01*
X67558Y53918D01*
X67669Y54139D01*
X67733Y54250D01*
X67817Y54361D01*
X67900Y54463D01*
X67992Y54556D01*
X68001Y54565D01*
X68020Y54574D01*
X68048Y54602D01*
X68094Y54630D01*
X68149Y54667D01*
X68214Y54703D01*
X68288Y54750D01*
X68381Y54796D01*
X68482Y54842D01*
X68593Y54888D01*
X68713Y54925D01*
X68843Y54962D01*
X68981Y54990D01*
X69130Y55018D01*
X69287Y55027D01*
X69453Y55036D01*
X69545D01*
X69610Y55027D01*
D02*
G37*
G36*
X426536Y56691D02*
X426656Y56673D01*
X426804Y56645D01*
X426971Y56599D01*
X427137Y56543D01*
X427304Y56470D01*
X427313D01*
X427322Y56460D01*
X427378Y56433D01*
X427461Y56377D01*
X427553Y56312D01*
X427664Y56220D01*
X427775Y56118D01*
X427886Y55998D01*
X427978Y55859D01*
X427988Y55841D01*
X428015Y55795D01*
X428052Y55711D01*
X428099Y55610D01*
X428145Y55490D01*
X428182Y55351D01*
X428210Y55194D01*
X428219Y55037D01*
Y55018D01*
Y54963D01*
X428210Y54889D01*
X428191Y54787D01*
X428163Y54667D01*
X428117Y54537D01*
X428062Y54408D01*
X427988Y54278D01*
X427978Y54260D01*
X427951Y54223D01*
X427895Y54158D01*
X427821Y54084D01*
X427729Y54001D01*
X427618Y53909D01*
X427488Y53825D01*
X427331Y53742D01*
X427341D01*
X427359Y53733D01*
X427387Y53724D01*
X427424Y53714D01*
X427525Y53677D01*
X427655Y53622D01*
X427803Y53548D01*
X427951Y53456D01*
X428089Y53335D01*
X428219Y53197D01*
X428228Y53178D01*
X428265Y53123D01*
X428321Y53030D01*
X428376Y52910D01*
X428432Y52762D01*
X428487Y52586D01*
X428524Y52383D01*
X428533Y52161D01*
Y52152D01*
Y52124D01*
Y52078D01*
X428524Y52023D01*
X428515Y51948D01*
X428496Y51865D01*
X428478Y51773D01*
X428459Y51671D01*
X428385Y51449D01*
X428330Y51329D01*
X428274Y51218D01*
X428200Y51098D01*
X428117Y50978D01*
X428025Y50858D01*
X427914Y50747D01*
X427905Y50737D01*
X427886Y50719D01*
X427849Y50691D01*
X427803Y50654D01*
X427747Y50608D01*
X427673Y50562D01*
X427590Y50506D01*
X427488Y50460D01*
X427387Y50405D01*
X427267Y50349D01*
X427146Y50303D01*
X427008Y50257D01*
X426860Y50220D01*
X426703Y50192D01*
X426545Y50173D01*
X426370Y50164D01*
X426287D01*
X426231Y50173D01*
X426157Y50183D01*
X426074Y50192D01*
X425981Y50210D01*
X425880Y50229D01*
X425658Y50284D01*
X425427Y50377D01*
X425307Y50432D01*
X425196Y50497D01*
X425085Y50580D01*
X424974Y50663D01*
X424964Y50673D01*
X424946Y50691D01*
X424918Y50719D01*
X424890Y50756D01*
X424844Y50802D01*
X424798Y50867D01*
X424743Y50932D01*
X424687Y51015D01*
X424632Y51107D01*
X424576Y51200D01*
X424474Y51421D01*
X424391Y51680D01*
X424363Y51819D01*
X424345Y51967D01*
X425131Y52069D01*
Y52059D01*
X425140Y52041D01*
X425149Y52004D01*
X425159Y51958D01*
X425168Y51902D01*
X425186Y51838D01*
X425233Y51699D01*
X425297Y51532D01*
X425380Y51375D01*
X425473Y51227D01*
X425584Y51098D01*
X425602Y51089D01*
X425639Y51052D01*
X425713Y51005D01*
X425806Y50959D01*
X425917Y50904D01*
X426055Y50858D01*
X426213Y50820D01*
X426379Y50811D01*
X426434D01*
X426471Y50820D01*
X426573Y50830D01*
X426703Y50858D01*
X426851Y50904D01*
X427008Y50968D01*
X427165Y51061D01*
X427313Y51190D01*
X427331Y51209D01*
X427378Y51264D01*
X427433Y51347D01*
X427507Y51459D01*
X427581Y51597D01*
X427636Y51754D01*
X427683Y51939D01*
X427701Y52143D01*
Y52152D01*
Y52170D01*
Y52198D01*
X427692Y52235D01*
X427683Y52337D01*
X427655Y52457D01*
X427618Y52605D01*
X427553Y52753D01*
X427461Y52901D01*
X427341Y53039D01*
X427322Y53058D01*
X427276Y53095D01*
X427202Y53150D01*
X427100Y53215D01*
X426971Y53280D01*
X426814Y53335D01*
X426638Y53372D01*
X426444Y53391D01*
X426361D01*
X426296Y53382D01*
X426213Y53372D01*
X426120Y53354D01*
X426009Y53335D01*
X425889Y53308D01*
X425981Y54001D01*
X426028D01*
X426065Y53992D01*
X426185D01*
X426287Y54010D01*
X426407Y54029D01*
X426545Y54057D01*
X426703Y54103D01*
X426851Y54167D01*
X427008Y54251D01*
X427017D01*
X427026Y54260D01*
X427072Y54297D01*
X427137Y54362D01*
X427211Y54445D01*
X427285Y54565D01*
X427350Y54704D01*
X427396Y54861D01*
X427415Y54953D01*
Y55055D01*
Y55064D01*
Y55073D01*
Y55129D01*
X427396Y55203D01*
X427378Y55305D01*
X427341Y55416D01*
X427294Y55536D01*
X427220Y55656D01*
X427119Y55767D01*
X427109Y55776D01*
X427063Y55813D01*
X426998Y55859D01*
X426915Y55915D01*
X426804Y55961D01*
X426675Y56007D01*
X426527Y56044D01*
X426361Y56054D01*
X426287D01*
X426203Y56035D01*
X426092Y56017D01*
X425972Y55980D01*
X425852Y55933D01*
X425723Y55859D01*
X425602Y55767D01*
X425593Y55758D01*
X425556Y55711D01*
X425501Y55647D01*
X425436Y55554D01*
X425371Y55434D01*
X425307Y55286D01*
X425251Y55111D01*
X425214Y54907D01*
X424428Y55046D01*
Y55055D01*
X424437Y55083D01*
X424447Y55120D01*
X424456Y55175D01*
X424474Y55240D01*
X424502Y55314D01*
X424558Y55490D01*
X424650Y55693D01*
X424761Y55896D01*
X424900Y56090D01*
X425075Y56266D01*
X425085Y56275D01*
X425103Y56285D01*
X425131Y56303D01*
X425168Y56331D01*
X425214Y56368D01*
X425279Y56405D01*
X425343Y56442D01*
X425427Y56488D01*
X425612Y56562D01*
X425824Y56636D01*
X426074Y56682D01*
X426203Y56701D01*
X426434D01*
X426536Y56691D01*
D02*
G37*
G36*
X423272Y52309D02*
Y52300D01*
Y52272D01*
Y52235D01*
Y52180D01*
X423263Y52106D01*
Y52032D01*
X423245Y51856D01*
X423226Y51653D01*
X423189Y51440D01*
X423134Y51246D01*
X423069Y51061D01*
Y51052D01*
X423060Y51042D01*
X423032Y50987D01*
X422986Y50913D01*
X422921Y50811D01*
X422829Y50710D01*
X422727Y50599D01*
X422598Y50488D01*
X422450Y50395D01*
X422431Y50386D01*
X422376Y50358D01*
X422292Y50321D01*
X422172Y50284D01*
X422024Y50238D01*
X421858Y50201D01*
X421673Y50173D01*
X421469Y50164D01*
X421386D01*
X421331Y50173D01*
X421257Y50183D01*
X421183Y50192D01*
X420989Y50229D01*
X420785Y50284D01*
X420573Y50367D01*
X420462Y50423D01*
X420360Y50488D01*
X420268Y50562D01*
X420175Y50645D01*
X420166Y50654D01*
X420157Y50663D01*
X420138Y50700D01*
X420110Y50737D01*
X420074Y50784D01*
X420037Y50848D01*
X420000Y50922D01*
X419953Y51005D01*
X419916Y51098D01*
X419879Y51209D01*
X419842Y51320D01*
X419805Y51449D01*
X419787Y51588D01*
X419759Y51745D01*
X419750Y51902D01*
Y52078D01*
X420517Y52189D01*
Y52180D01*
Y52161D01*
Y52124D01*
X420527Y52069D01*
X420536Y52013D01*
Y51948D01*
X420564Y51791D01*
X420591Y51625D01*
X420647Y51459D01*
X420702Y51311D01*
X420739Y51246D01*
X420785Y51190D01*
X420795Y51181D01*
X420832Y51153D01*
X420887Y51107D01*
X420961Y51061D01*
X421063Y51005D01*
X421174Y50968D01*
X421312Y50932D01*
X421460Y50922D01*
X421516D01*
X421571Y50932D01*
X421655Y50941D01*
X421738Y50959D01*
X421830Y50978D01*
X421923Y51015D01*
X422015Y51061D01*
X422024Y51070D01*
X422052Y51089D01*
X422089Y51126D01*
X422145Y51163D01*
X422191Y51227D01*
X422246Y51292D01*
X422292Y51366D01*
X422329Y51459D01*
Y51468D01*
X422348Y51505D01*
X422357Y51569D01*
X422376Y51653D01*
X422394Y51764D01*
X422403Y51902D01*
X422422Y52069D01*
Y52263D01*
Y56673D01*
X423272D01*
Y52309D01*
D02*
G37*
G36*
X437659Y56664D02*
X437742D01*
X437936Y56655D01*
X438139Y56627D01*
X438361Y56599D01*
X438565Y56553D01*
X438666Y56525D01*
X438750Y56497D01*
X438759D01*
X438768Y56488D01*
X438824Y56460D01*
X438907Y56423D01*
X439008Y56359D01*
X439119Y56275D01*
X439240Y56164D01*
X439351Y56035D01*
X439462Y55887D01*
Y55878D01*
X439471Y55869D01*
X439508Y55813D01*
X439545Y55721D01*
X439600Y55601D01*
X439646Y55462D01*
X439693Y55295D01*
X439720Y55120D01*
X439730Y54926D01*
Y54916D01*
Y54898D01*
Y54861D01*
X439720Y54815D01*
Y54750D01*
X439711Y54685D01*
X439674Y54528D01*
X439619Y54343D01*
X439545Y54149D01*
X439434Y53955D01*
X439360Y53862D01*
X439286Y53770D01*
X439277Y53761D01*
X439267Y53751D01*
X439240Y53724D01*
X439203Y53696D01*
X439156Y53659D01*
X439101Y53622D01*
X439027Y53576D01*
X438953Y53520D01*
X438861Y53474D01*
X438759Y53428D01*
X438648Y53372D01*
X438528Y53326D01*
X438389Y53289D01*
X438250Y53243D01*
X438093Y53215D01*
X437927Y53187D01*
X437945Y53178D01*
X437982Y53160D01*
X438038Y53123D01*
X438112Y53086D01*
X438278Y52984D01*
X438361Y52919D01*
X438435Y52864D01*
X438454Y52845D01*
X438500Y52799D01*
X438574Y52725D01*
X438666Y52633D01*
X438768Y52503D01*
X438888Y52365D01*
X439008Y52198D01*
X439138Y52013D01*
X440238Y50275D01*
X439184D01*
X438343Y51606D01*
Y51616D01*
X438324Y51634D01*
X438306Y51662D01*
X438278Y51699D01*
X438213Y51801D01*
X438130Y51930D01*
X438028Y52069D01*
X437927Y52217D01*
X437825Y52355D01*
X437733Y52485D01*
X437723Y52494D01*
X437696Y52531D01*
X437649Y52586D01*
X437585Y52651D01*
X437446Y52790D01*
X437372Y52855D01*
X437298Y52910D01*
X437289Y52919D01*
X437270Y52929D01*
X437233Y52947D01*
X437178Y52975D01*
X437122Y53003D01*
X437058Y53030D01*
X436910Y53076D01*
X436900D01*
X436882Y53086D01*
X436845D01*
X436799Y53095D01*
X436734Y53104D01*
X436660D01*
X436558Y53113D01*
X435467D01*
Y50275D01*
X434617D01*
Y56673D01*
X437585D01*
X437659Y56664D01*
D02*
G37*
G36*
X434007Y48500D02*
X428801D01*
Y49064D01*
X434007D01*
Y48500D01*
D02*
G37*
G36*
X315536Y55527D02*
X315656Y55509D01*
X315804Y55481D01*
X315971Y55435D01*
X316137Y55379D01*
X316304Y55305D01*
X316313D01*
X316322Y55296D01*
X316378Y55268D01*
X316461Y55213D01*
X316553Y55148D01*
X316664Y55056D01*
X316775Y54954D01*
X316886Y54834D01*
X316978Y54695D01*
X316988Y54677D01*
X317015Y54630D01*
X317052Y54547D01*
X317099Y54446D01*
X317145Y54325D01*
X317182Y54187D01*
X317210Y54029D01*
X317219Y53872D01*
Y53854D01*
Y53798D01*
X317210Y53724D01*
X317191Y53623D01*
X317163Y53502D01*
X317117Y53373D01*
X317062Y53244D01*
X316988Y53114D01*
X316978Y53096D01*
X316951Y53059D01*
X316895Y52994D01*
X316821Y52920D01*
X316729Y52837D01*
X316618Y52744D01*
X316488Y52661D01*
X316331Y52578D01*
X316341D01*
X316359Y52569D01*
X316387Y52559D01*
X316424Y52550D01*
X316525Y52513D01*
X316655Y52458D01*
X316803Y52384D01*
X316951Y52291D01*
X317089Y52171D01*
X317219Y52032D01*
X317228Y52014D01*
X317265Y51958D01*
X317320Y51866D01*
X317376Y51746D01*
X317432Y51598D01*
X317487Y51422D01*
X317524Y51219D01*
X317533Y50997D01*
Y50988D01*
Y50960D01*
Y50914D01*
X317524Y50858D01*
X317515Y50784D01*
X317496Y50701D01*
X317478Y50609D01*
X317459Y50507D01*
X317385Y50285D01*
X317330Y50165D01*
X317274Y50054D01*
X317200Y49934D01*
X317117Y49813D01*
X317025Y49693D01*
X316914Y49582D01*
X316905Y49573D01*
X316886Y49555D01*
X316849Y49527D01*
X316803Y49490D01*
X316747Y49444D01*
X316673Y49397D01*
X316590Y49342D01*
X316488Y49296D01*
X316387Y49240D01*
X316267Y49185D01*
X316146Y49139D01*
X316008Y49092D01*
X315860Y49055D01*
X315703Y49028D01*
X315545Y49009D01*
X315370Y49000D01*
X315287D01*
X315231Y49009D01*
X315157Y49018D01*
X315074Y49028D01*
X314981Y49046D01*
X314880Y49065D01*
X314658Y49120D01*
X314427Y49212D01*
X314307Y49268D01*
X314195Y49333D01*
X314085Y49416D01*
X313974Y49499D01*
X313964Y49508D01*
X313946Y49527D01*
X313918Y49555D01*
X313890Y49592D01*
X313844Y49638D01*
X313798Y49703D01*
X313743Y49767D01*
X313687Y49851D01*
X313632Y49943D01*
X313576Y50035D01*
X313474Y50257D01*
X313391Y50516D01*
X313363Y50655D01*
X313345Y50803D01*
X314131Y50904D01*
Y50895D01*
X314140Y50877D01*
X314149Y50840D01*
X314159Y50793D01*
X314168Y50738D01*
X314186Y50673D01*
X314233Y50535D01*
X314297Y50368D01*
X314380Y50211D01*
X314473Y50063D01*
X314584Y49934D01*
X314602Y49924D01*
X314639Y49887D01*
X314713Y49841D01*
X314806Y49795D01*
X314917Y49739D01*
X315055Y49693D01*
X315213Y49656D01*
X315379Y49647D01*
X315434D01*
X315471Y49656D01*
X315573Y49666D01*
X315703Y49693D01*
X315851Y49739D01*
X316008Y49804D01*
X316165Y49897D01*
X316313Y50026D01*
X316331Y50045D01*
X316378Y50100D01*
X316433Y50183D01*
X316507Y50294D01*
X316581Y50433D01*
X316636Y50590D01*
X316683Y50775D01*
X316701Y50978D01*
Y50988D01*
Y51006D01*
Y51034D01*
X316692Y51071D01*
X316683Y51173D01*
X316655Y51293D01*
X316618Y51441D01*
X316553Y51589D01*
X316461Y51737D01*
X316341Y51875D01*
X316322Y51894D01*
X316276Y51931D01*
X316202Y51986D01*
X316100Y52051D01*
X315971Y52116D01*
X315814Y52171D01*
X315638Y52208D01*
X315444Y52227D01*
X315361D01*
X315296Y52217D01*
X315213Y52208D01*
X315120Y52190D01*
X315009Y52171D01*
X314889Y52143D01*
X314981Y52837D01*
X315028D01*
X315065Y52828D01*
X315185D01*
X315287Y52846D01*
X315407Y52864D01*
X315545Y52892D01*
X315703Y52938D01*
X315851Y53003D01*
X316008Y53086D01*
X316017D01*
X316026Y53096D01*
X316072Y53133D01*
X316137Y53197D01*
X316211Y53281D01*
X316285Y53401D01*
X316350Y53540D01*
X316396Y53697D01*
X316415Y53789D01*
Y53891D01*
Y53900D01*
Y53909D01*
Y53965D01*
X316396Y54039D01*
X316378Y54140D01*
X316341Y54251D01*
X316294Y54372D01*
X316220Y54492D01*
X316119Y54603D01*
X316109Y54612D01*
X316063Y54649D01*
X315998Y54695D01*
X315915Y54751D01*
X315804Y54797D01*
X315675Y54843D01*
X315527Y54880D01*
X315361Y54889D01*
X315287D01*
X315203Y54871D01*
X315092Y54852D01*
X314972Y54815D01*
X314852Y54769D01*
X314722Y54695D01*
X314602Y54603D01*
X314593Y54594D01*
X314556Y54547D01*
X314501Y54482D01*
X314436Y54390D01*
X314371Y54270D01*
X314307Y54122D01*
X314251Y53946D01*
X314214Y53743D01*
X313428Y53882D01*
Y53891D01*
X313437Y53918D01*
X313447Y53955D01*
X313456Y54011D01*
X313474Y54076D01*
X313502Y54150D01*
X313558Y54325D01*
X313650Y54529D01*
X313761Y54732D01*
X313900Y54926D01*
X314075Y55102D01*
X314085Y55111D01*
X314103Y55121D01*
X314131Y55139D01*
X314168Y55167D01*
X314214Y55204D01*
X314279Y55241D01*
X314343Y55278D01*
X314427Y55324D01*
X314612Y55398D01*
X314824Y55472D01*
X315074Y55518D01*
X315203Y55536D01*
X315434D01*
X315536Y55527D01*
D02*
G37*
G36*
X312272Y51145D02*
Y51136D01*
Y51108D01*
Y51071D01*
Y51015D01*
X312263Y50942D01*
Y50868D01*
X312245Y50692D01*
X312226Y50488D01*
X312189Y50276D01*
X312134Y50082D01*
X312069Y49897D01*
Y49887D01*
X312060Y49878D01*
X312032Y49823D01*
X311986Y49749D01*
X311921Y49647D01*
X311829Y49545D01*
X311727Y49434D01*
X311597Y49324D01*
X311450Y49231D01*
X311431Y49222D01*
X311376Y49194D01*
X311292Y49157D01*
X311172Y49120D01*
X311024Y49074D01*
X310858Y49037D01*
X310673Y49009D01*
X310470Y49000D01*
X310386D01*
X310331Y49009D01*
X310257Y49018D01*
X310183Y49028D01*
X309989Y49065D01*
X309785Y49120D01*
X309573Y49203D01*
X309462Y49259D01*
X309360Y49324D01*
X309268Y49397D01*
X309175Y49481D01*
X309166Y49490D01*
X309157Y49499D01*
X309138Y49536D01*
X309111Y49573D01*
X309074Y49619D01*
X309037Y49684D01*
X309000Y49758D01*
X308953Y49841D01*
X308916Y49934D01*
X308879Y50045D01*
X308842Y50156D01*
X308805Y50285D01*
X308787Y50424D01*
X308759Y50581D01*
X308750Y50738D01*
Y50914D01*
X309517Y51025D01*
Y51015D01*
Y50997D01*
Y50960D01*
X309527Y50904D01*
X309536Y50849D01*
Y50784D01*
X309564Y50627D01*
X309591Y50461D01*
X309647Y50294D01*
X309702Y50146D01*
X309739Y50082D01*
X309785Y50026D01*
X309795Y50017D01*
X309832Y49989D01*
X309887Y49943D01*
X309961Y49897D01*
X310063Y49841D01*
X310174Y49804D01*
X310312Y49767D01*
X310460Y49758D01*
X310516D01*
X310571Y49767D01*
X310655Y49777D01*
X310738Y49795D01*
X310830Y49813D01*
X310923Y49851D01*
X311015Y49897D01*
X311024Y49906D01*
X311052Y49924D01*
X311089Y49961D01*
X311145Y49998D01*
X311191Y50063D01*
X311246Y50128D01*
X311292Y50202D01*
X311329Y50294D01*
Y50304D01*
X311348Y50340D01*
X311357Y50405D01*
X311376Y50488D01*
X311394Y50599D01*
X311403Y50738D01*
X311422Y50904D01*
Y51099D01*
Y55509D01*
X312272D01*
Y51145D01*
D02*
G37*
%LPC*%
G36*
X192483Y55961D02*
X190467D01*
Y53844D01*
X192372D01*
X192483Y53853D01*
X192612Y53862D01*
X192760Y53872D01*
X192908Y53890D01*
X193056Y53918D01*
X193186Y53955D01*
X193204Y53964D01*
X193241Y53983D01*
X193297Y54010D01*
X193370Y54047D01*
X193454Y54103D01*
X193537Y54167D01*
X193620Y54251D01*
X193685Y54343D01*
X193694Y54352D01*
X193713Y54389D01*
X193740Y54445D01*
X193777Y54519D01*
X193805Y54602D01*
X193833Y54694D01*
X193851Y54805D01*
X193860Y54916D01*
Y54926D01*
Y54935D01*
X193851Y54990D01*
X193842Y55073D01*
X193824Y55184D01*
X193777Y55295D01*
X193722Y55425D01*
X193639Y55545D01*
X193528Y55665D01*
X193509Y55675D01*
X193463Y55711D01*
X193389Y55758D01*
X193269Y55813D01*
X193130Y55869D01*
X192945Y55915D01*
X192733Y55952D01*
X192483Y55961D01*
D02*
G37*
G36*
X437483D02*
X435467D01*
Y53844D01*
X437372D01*
X437483Y53853D01*
X437612Y53862D01*
X437760Y53872D01*
X437908Y53890D01*
X438056Y53918D01*
X438186Y53955D01*
X438204Y53964D01*
X438241Y53983D01*
X438297Y54010D01*
X438371Y54047D01*
X438454Y54103D01*
X438537Y54167D01*
X438620Y54251D01*
X438685Y54343D01*
X438694Y54352D01*
X438713Y54389D01*
X438740Y54445D01*
X438777Y54519D01*
X438805Y54602D01*
X438833Y54694D01*
X438851Y54805D01*
X438861Y54916D01*
Y54926D01*
Y54935D01*
X438851Y54990D01*
X438842Y55073D01*
X438824Y55184D01*
X438777Y55295D01*
X438722Y55425D01*
X438639Y55545D01*
X438528Y55665D01*
X438509Y55675D01*
X438463Y55711D01*
X438389Y55758D01*
X438269Y55813D01*
X438130Y55869D01*
X437945Y55915D01*
X437733Y55952D01*
X437483Y55961D01*
D02*
G37*
%LPD*%
D11*
X131500Y20500D02*
Y76500D01*
Y20500D02*
X218000D01*
Y76500D01*
X131500D02*
X218000D01*
X19500D02*
X106000D01*
Y20500D02*
Y76500D01*
X19500Y20500D02*
X106000D01*
X19500D02*
Y76500D01*
X376500Y20500D02*
Y76500D01*
Y20500D02*
X463000D01*
Y76500D01*
X376500D02*
X463000D01*
X265500Y21000D02*
Y77000D01*
Y21000D02*
X352000D01*
Y77000D01*
X265500D02*
X352000D01*
M02*
