G04*
G04 #@! TF.GenerationSoftware,Altium Limited,Altium Designer,22.9.1 (49)*
G04*
G04 Layer_Color=255*
%FSLAX44Y44*%
%MOMM*%
G71*
G04*
G04 #@! TF.SameCoordinates,B5FEB32B-E54B-4D09-B02F-23BE752CD7F3*
G04*
G04*
G04 #@! TF.FilePolarity,Positive*
G04*
G01*
G75*
%ADD14R,1.0000X2.7000*%
%ADD15R,0.6000X1.7000*%
%ADD16R,0.7000X0.3000*%
%ADD17R,1.0000X0.3000*%
%ADD24R,1.5000X1.5000*%
%ADD25C,1.5000*%
%ADD26C,6.0000*%
D14*
X212000Y35000D02*
D03*
X137500D02*
D03*
X25501D02*
D03*
X100000D02*
D03*
X457000D02*
D03*
X382500D02*
D03*
X346000Y35500D02*
D03*
X271500D02*
D03*
D15*
X193500Y67000D02*
D03*
X181000D02*
D03*
X168500D02*
D03*
X156000D02*
D03*
X44000D02*
D03*
X56500D02*
D03*
X69001D02*
D03*
X81500D02*
D03*
X438500D02*
D03*
X426000D02*
D03*
X413500D02*
D03*
X401000D02*
D03*
X327500Y67500D02*
D03*
X315000D02*
D03*
X302500D02*
D03*
X290000D02*
D03*
D16*
X587500Y62500D02*
D03*
Y57500D02*
D03*
Y32500D02*
D03*
Y27500D02*
D03*
Y22500D02*
D03*
Y17500D02*
D03*
Y37500D02*
D03*
Y42500D02*
D03*
Y47500D02*
D03*
Y52500D02*
D03*
X512500D02*
D03*
Y47500D02*
D03*
Y42500D02*
D03*
Y37500D02*
D03*
Y17500D02*
D03*
Y22500D02*
D03*
Y27500D02*
D03*
Y32500D02*
D03*
Y57500D02*
D03*
Y62500D02*
D03*
D17*
X614000Y70400D02*
D03*
Y9600D02*
D03*
X539000D02*
D03*
Y70400D02*
D03*
D24*
X86202Y122301D02*
D03*
D25*
Y147701D02*
D03*
X111602Y122301D02*
D03*
Y147701D02*
D03*
X137002Y122301D02*
D03*
Y147701D02*
D03*
X162402Y122301D02*
D03*
Y147701D02*
D03*
X187802Y122301D02*
D03*
Y147701D02*
D03*
X213202Y122301D02*
D03*
Y147701D02*
D03*
X238602Y122301D02*
D03*
Y147701D02*
D03*
X264002Y122301D02*
D03*
Y147701D02*
D03*
X289402Y122301D02*
D03*
Y147701D02*
D03*
X314802Y122301D02*
D03*
Y147701D02*
D03*
X340202Y122301D02*
D03*
Y147701D02*
D03*
X365602Y122301D02*
D03*
Y147701D02*
D03*
X391002Y122301D02*
D03*
Y147701D02*
D03*
X416402Y122301D02*
D03*
Y147701D02*
D03*
X441802Y122301D02*
D03*
Y147701D02*
D03*
X467202Y122301D02*
D03*
Y147701D02*
D03*
X568802D02*
D03*
Y122301D02*
D03*
X543402Y147701D02*
D03*
Y122301D02*
D03*
X518002Y147701D02*
D03*
Y122301D02*
D03*
X492602Y147701D02*
D03*
Y122301D02*
D03*
D26*
X35000Y127500D02*
D03*
X615000D02*
D03*
M02*
