M48
;Layer_Color=9474304
;FILE_FORMAT=4:4
METRIC,LZ
;TYPE=PLATED
T1F00S00C0.4000
T2F00S00C0.9000
T3F00S00C2.7500
%
T01
X0063256Y00022716
X00606578Y00028903
X00600048Y00016874
Y00047
X006075Y0006
X00556106Y000575
X00527912Y0004964
X00525Y0001
X00498194Y00084184
X00487272
X0035Y0009
X0033
X0032125Y0008375
X00587856Y00154149
X00153262Y00090732
T02
X00238602Y00122301
Y00147701
X00264002
Y00122301
X00289402
Y00147701
X00314802
Y00122301
X00340202
Y00147701
X00365602
Y00122301
X00391002
Y00147701
X00416402
Y00122301
X00441802
Y00147701
X00467202
Y00122301
X00492602
X00518002
X00543402
X00568802
Y00147701
X00543402
X00518002
X00492602
X00213202
X00187802
X00162402
X00137002
X00111602
X00086202
Y00122301
X00111602
X00137002
X00162402
X00187802
X00213202
T03
X00615Y001275
X00035
M30
