G04*
G04 #@! TF.GenerationSoftware,Altium Limited,Altium Designer,22.9.1 (49)*
G04*
G04 Layer_Color=8388736*
%FSLAX44Y44*%
%MOMM*%
G71*
G04*
G04 #@! TF.SameCoordinates,B5FEB32B-E54B-4D09-B02F-23BE752CD7F3*
G04*
G04*
G04 #@! TF.FilePolarity,Negative*
G04*
G01*
G75*
%ADD14R,1.0000X2.7000*%
%ADD15R,0.6000X1.7000*%
%ADD18R,0.9032X0.5032*%
%ADD19R,1.2032X0.5032*%
%ADD20R,1.7032X1.7032*%
%ADD21C,1.7032*%
%ADD22C,6.2032*%
%ADD23C,0.7032*%
D14*
X212000Y35000D02*
D03*
X137500D02*
D03*
X25501D02*
D03*
X100000D02*
D03*
X457000D02*
D03*
X382500D02*
D03*
X346000Y35500D02*
D03*
X271500D02*
D03*
D15*
X193500Y67000D02*
D03*
X181000D02*
D03*
X168500D02*
D03*
X156000D02*
D03*
X44000D02*
D03*
X56500D02*
D03*
X69001D02*
D03*
X81500D02*
D03*
X438500D02*
D03*
X426000D02*
D03*
X413500D02*
D03*
X401000D02*
D03*
X327500Y67500D02*
D03*
X315000D02*
D03*
X302500D02*
D03*
X290000D02*
D03*
D18*
X587500Y62500D02*
D03*
Y57500D02*
D03*
Y32500D02*
D03*
Y27500D02*
D03*
Y22500D02*
D03*
Y17500D02*
D03*
Y37500D02*
D03*
Y42500D02*
D03*
Y47500D02*
D03*
Y52500D02*
D03*
X512500D02*
D03*
Y47500D02*
D03*
Y42500D02*
D03*
Y37500D02*
D03*
Y17500D02*
D03*
Y22500D02*
D03*
Y27500D02*
D03*
Y32500D02*
D03*
Y57500D02*
D03*
Y62500D02*
D03*
D19*
X614000Y70400D02*
D03*
Y9600D02*
D03*
X539000D02*
D03*
Y70400D02*
D03*
D20*
X86202Y122301D02*
D03*
D21*
Y147701D02*
D03*
X111602Y122301D02*
D03*
Y147701D02*
D03*
X137002Y122301D02*
D03*
Y147701D02*
D03*
X162402Y122301D02*
D03*
Y147701D02*
D03*
X187802Y122301D02*
D03*
Y147701D02*
D03*
X213202Y122301D02*
D03*
Y147701D02*
D03*
X238602Y122301D02*
D03*
Y147701D02*
D03*
X264002Y122301D02*
D03*
Y147701D02*
D03*
X289402Y122301D02*
D03*
Y147701D02*
D03*
X314802Y122301D02*
D03*
Y147701D02*
D03*
X340202Y122301D02*
D03*
Y147701D02*
D03*
X365602Y122301D02*
D03*
Y147701D02*
D03*
X391002Y122301D02*
D03*
Y147701D02*
D03*
X416402Y122301D02*
D03*
Y147701D02*
D03*
X441802Y122301D02*
D03*
Y147701D02*
D03*
X467202Y122301D02*
D03*
Y147701D02*
D03*
X568802D02*
D03*
Y122301D02*
D03*
X543402Y147701D02*
D03*
Y122301D02*
D03*
X518002Y147701D02*
D03*
Y122301D02*
D03*
X492602Y147701D02*
D03*
Y122301D02*
D03*
D22*
X35000Y127500D02*
D03*
X615000D02*
D03*
D23*
X321250Y83750D02*
D03*
X350000Y90000D02*
D03*
X330000D02*
D03*
X525000Y10000D02*
D03*
X607500Y60000D02*
D03*
X600048Y47000D02*
D03*
X153262Y90732D02*
D03*
X487272Y84184D02*
D03*
X498194D02*
D03*
X600048Y16874D02*
D03*
X632560Y22716D02*
D03*
X527912Y49640D02*
D03*
X606578Y28903D02*
D03*
X556106Y57500D02*
D03*
X587856Y154149D02*
D03*
M02*
