G04*
G04 #@! TF.GenerationSoftware,Altium Limited,Altium Designer,22.9.1 (49)*
G04*
G04 Layer_Physical_Order=1*
G04 Layer_Color=255*
%FSLAX44Y44*%
%MOMM*%
G71*
G04*
G04 #@! TF.SameCoordinates,166B4888-961C-4D6F-8319-6358E2314730*
G04*
G04*
G04 #@! TF.FilePolarity,Positive*
G04*
G01*
G75*
%ADD11C,0.2000*%
%ADD13C,0.2540*%
%ADD14R,1.0000X2.7000*%
%ADD15R,0.6000X1.7000*%
%ADD16R,0.7000X0.3000*%
%ADD17R,1.0000X0.3000*%
%ADD24C,1.5000*%
%ADD25R,1.5000X1.5000*%
%ADD26C,6.0000*%
%ADD27C,0.5000*%
D11*
X262500Y57500D02*
X262500Y57500D01*
X215000D02*
X215000Y57500D01*
X262500D01*
X187500Y35000D02*
X195406D01*
X111602Y88398D02*
X137500Y62500D01*
X111602Y88398D02*
Y122301D01*
X214250Y62500D02*
Y91804D01*
X213202Y92852D02*
X214250Y91804D01*
X213202Y92852D02*
Y122301D01*
X239188Y45000D02*
X240000D01*
X215000Y47500D02*
X236688D01*
X239188Y45000D01*
X215000Y47500D02*
X215000Y47500D01*
X366258Y137201D02*
Y147044D01*
Y137201D02*
X376602Y126857D01*
Y117744D02*
Y126857D01*
X365602Y147701D02*
X366258Y147044D01*
X306357Y47500D02*
X376602Y117744D01*
X300000Y47500D02*
X306357D01*
X214250Y17500D02*
X233018D01*
X289402Y73884D01*
Y122301D01*
X111352Y9508D02*
X145642D01*
X176630Y40496D01*
Y136529D01*
X83750Y37110D02*
X111352Y9508D01*
X215000Y52500D02*
X249188D01*
X251688Y50000D02*
X252500D01*
X249188Y52500D02*
X251688Y50000D01*
X293301D02*
X365602Y122301D01*
X277500Y50000D02*
X293301D01*
X285000Y57500D02*
X338489Y110989D01*
Y120588D02*
X340202Y122301D01*
X338489Y110989D02*
Y120588D01*
X197906Y32500D02*
X212500D01*
X195406Y35000D02*
X197906Y32500D01*
X177500Y27500D02*
X212500D01*
X176630Y136529D02*
X187802Y147701D01*
X137002Y80498D02*
Y122301D01*
Y80498D02*
X145000Y72500D01*
X151230Y63356D02*
Y136529D01*
X162402Y147701D01*
X135990Y48116D02*
X151230Y63356D01*
X99160Y48116D02*
X135990D01*
X187802Y57772D02*
X203074Y42500D01*
X187802Y57772D02*
Y122301D01*
X203074Y42500D02*
X214250D01*
X100430Y91804D02*
X108750Y83484D01*
X100430Y91804D02*
Y128380D01*
X108750Y60250D02*
Y83484D01*
X214250Y37500D02*
Y42500D01*
X83750Y37110D02*
Y60250D01*
X96250Y51026D02*
Y60250D01*
Y51026D02*
X99160Y48116D01*
X214250Y42500D02*
Y42500D01*
X100430Y128380D02*
X107034Y134984D01*
X124285D01*
X137002Y147701D01*
X214250Y17500D02*
Y22500D01*
D13*
X367697Y40236D02*
X365158Y42775D01*
X360079D01*
X357540Y40236D01*
Y30079D01*
X360079Y27540D01*
X365158D01*
X367697Y30079D01*
X372775Y42775D02*
Y30079D01*
X375314Y27540D01*
X380393D01*
X382932Y30079D01*
Y42775D01*
X398167Y40236D02*
X395628Y42775D01*
X390549D01*
X388010Y40236D01*
Y37697D01*
X390549Y35157D01*
X395628D01*
X398167Y32618D01*
Y30079D01*
X395628Y27540D01*
X390549D01*
X388010Y30079D01*
X403245Y27540D02*
Y42775D01*
X410863D01*
X413402Y40236D01*
Y35157D01*
X410863Y32618D01*
X403245D01*
X433715Y27540D02*
Y42775D01*
X441333D01*
X443872Y40236D01*
Y35157D01*
X441333Y32618D01*
X433715D01*
X448950Y27540D02*
X454029D01*
X451490D01*
Y37697D01*
X448950D01*
X476881Y42775D02*
Y27540D01*
Y35157D01*
X487038D01*
Y42775D01*
Y27540D01*
X494656Y37697D02*
X499734D01*
X502273Y35157D01*
Y27540D01*
X494656D01*
X492117Y30079D01*
X494656Y32618D01*
X502273D01*
X509891Y40236D02*
Y37697D01*
X507351D01*
X512430D01*
X509891D01*
Y30079D01*
X512430Y27540D01*
X535283Y37697D02*
X540361Y27540D01*
X545439Y37697D01*
X550518Y27540D02*
X555596D01*
X553057D01*
Y42775D01*
X550518Y40236D01*
X563214Y27540D02*
Y30079D01*
X565753D01*
Y27540D01*
X563214D01*
X575909Y40236D02*
X578448Y42775D01*
X583527D01*
X586066Y40236D01*
Y30079D01*
X583527Y27540D01*
X578448D01*
X575909Y30079D01*
Y40236D01*
D14*
X127250Y28250D02*
D03*
X52750D02*
D03*
D15*
X108750Y60250D02*
D03*
X96250D02*
D03*
X83750D02*
D03*
X71250D02*
D03*
D16*
X214250Y62500D02*
D03*
Y57500D02*
D03*
Y32500D02*
D03*
Y27500D02*
D03*
Y22500D02*
D03*
Y17500D02*
D03*
Y37500D02*
D03*
Y42500D02*
D03*
Y47500D02*
D03*
Y52500D02*
D03*
D17*
X240750Y70400D02*
D03*
Y9600D02*
D03*
D24*
X492602Y122301D02*
D03*
Y147701D02*
D03*
X518002Y122301D02*
D03*
Y147701D02*
D03*
X543402Y122301D02*
D03*
Y147701D02*
D03*
X568802Y122301D02*
D03*
Y147701D02*
D03*
X467202D02*
D03*
Y122301D02*
D03*
X441802Y147701D02*
D03*
Y122301D02*
D03*
X416402Y147701D02*
D03*
Y122301D02*
D03*
X391002Y147701D02*
D03*
Y122301D02*
D03*
X365602Y147701D02*
D03*
Y122301D02*
D03*
X340202Y147701D02*
D03*
Y122301D02*
D03*
X314802Y147701D02*
D03*
Y122301D02*
D03*
X289402Y147701D02*
D03*
Y122301D02*
D03*
X264002Y147701D02*
D03*
Y122301D02*
D03*
X238602Y147701D02*
D03*
Y122301D02*
D03*
X213202Y147701D02*
D03*
Y122301D02*
D03*
X187802Y147701D02*
D03*
Y122301D02*
D03*
X162402Y147701D02*
D03*
Y122301D02*
D03*
X137002Y147701D02*
D03*
Y122301D02*
D03*
X111602Y147701D02*
D03*
Y122301D02*
D03*
X86202Y147701D02*
D03*
D25*
Y122301D02*
D03*
D26*
X35000Y127500D02*
D03*
X615000D02*
D03*
D27*
X262500Y57500D02*
D03*
X187500Y35000D02*
D03*
X137500Y62500D02*
D03*
X240000Y45000D02*
D03*
X300000Y47500D02*
D03*
X252500Y50000D02*
D03*
X277500D02*
D03*
X285000Y57500D02*
D03*
X145000Y72500D02*
D03*
X177500Y27500D02*
D03*
M02*
