G04*
G04 #@! TF.GenerationSoftware,Altium Limited,Altium Designer,22.9.1 (49)*
G04*
G04 Layer_Color=16711935*
%FSLAX44Y44*%
%MOMM*%
G71*
G04*
G04 #@! TF.SameCoordinates,166B4888-961C-4D6F-8319-6358E2314730*
G04*
G04*
G04 #@! TF.FilePolarity,Positive*
G04*
G01*
G75*
%ADD11C,0.2000*%
G36*
X93522Y43895D02*
Y43886D01*
Y43858D01*
Y43821D01*
Y43765D01*
X93513Y43692D01*
Y43618D01*
X93495Y43442D01*
X93476Y43238D01*
X93439Y43026D01*
X93384Y42832D01*
X93319Y42647D01*
Y42638D01*
X93310Y42628D01*
X93282Y42573D01*
X93236Y42499D01*
X93171Y42397D01*
X93079Y42295D01*
X92977Y42184D01*
X92847Y42073D01*
X92700Y41981D01*
X92681Y41972D01*
X92626Y41944D01*
X92542Y41907D01*
X92422Y41870D01*
X92274Y41824D01*
X92108Y41787D01*
X91923Y41759D01*
X91720Y41750D01*
X91636D01*
X91581Y41759D01*
X91507Y41768D01*
X91433Y41778D01*
X91239Y41815D01*
X91035Y41870D01*
X90823Y41953D01*
X90712Y42009D01*
X90610Y42073D01*
X90518Y42147D01*
X90425Y42231D01*
X90416Y42240D01*
X90407Y42249D01*
X90388Y42286D01*
X90360Y42323D01*
X90323Y42369D01*
X90287Y42434D01*
X90250Y42508D01*
X90203Y42591D01*
X90166Y42684D01*
X90129Y42795D01*
X90092Y42906D01*
X90055Y43035D01*
X90037Y43174D01*
X90009Y43331D01*
X90000Y43488D01*
Y43664D01*
X90767Y43775D01*
Y43765D01*
Y43747D01*
Y43710D01*
X90777Y43654D01*
X90786Y43599D01*
Y43534D01*
X90814Y43377D01*
X90841Y43211D01*
X90897Y43044D01*
X90952Y42896D01*
X90989Y42832D01*
X91035Y42776D01*
X91045Y42767D01*
X91082Y42739D01*
X91137Y42693D01*
X91211Y42647D01*
X91313Y42591D01*
X91424Y42554D01*
X91562Y42517D01*
X91710Y42508D01*
X91766D01*
X91821Y42517D01*
X91904Y42526D01*
X91988Y42545D01*
X92080Y42564D01*
X92173Y42600D01*
X92265Y42647D01*
X92274Y42656D01*
X92302Y42674D01*
X92339Y42711D01*
X92395Y42748D01*
X92441Y42813D01*
X92496Y42878D01*
X92542Y42952D01*
X92579Y43044D01*
Y43053D01*
X92598Y43091D01*
X92607Y43155D01*
X92626Y43238D01*
X92644Y43349D01*
X92653Y43488D01*
X92672Y43654D01*
Y43849D01*
Y48259D01*
X93522D01*
Y43895D01*
D02*
G37*
G36*
X96860Y48277D02*
X96934Y48268D01*
X97027Y48259D01*
X97128Y48240D01*
X97230Y48222D01*
X97470Y48157D01*
X97711Y48065D01*
X97831Y48009D01*
X97951Y47944D01*
X98062Y47861D01*
X98164Y47769D01*
X98173Y47759D01*
X98191Y47750D01*
X98210Y47713D01*
X98247Y47676D01*
X98293Y47630D01*
X98339Y47565D01*
X98386Y47501D01*
X98441Y47417D01*
X98534Y47242D01*
X98626Y47020D01*
X98663Y46909D01*
X98681Y46779D01*
X98700Y46650D01*
X98709Y46511D01*
Y46493D01*
Y46447D01*
X98700Y46373D01*
X98691Y46271D01*
X98672Y46160D01*
X98635Y46031D01*
X98598Y45892D01*
X98543Y45753D01*
X98534Y45735D01*
X98515Y45689D01*
X98478Y45615D01*
X98423Y45513D01*
X98349Y45402D01*
X98256Y45263D01*
X98145Y45125D01*
X98016Y44967D01*
X97997Y44949D01*
X97951Y44893D01*
X97905Y44847D01*
X97859Y44801D01*
X97803Y44745D01*
X97729Y44672D01*
X97655Y44598D01*
X97563Y44514D01*
X97470Y44422D01*
X97359Y44320D01*
X97239Y44219D01*
X97110Y44098D01*
X96962Y43978D01*
X96814Y43849D01*
X96805Y43839D01*
X96786Y43821D01*
X96749Y43793D01*
X96703Y43756D01*
X96648Y43701D01*
X96583Y43645D01*
X96435Y43525D01*
X96278Y43386D01*
X96130Y43248D01*
X96000Y43127D01*
X95945Y43081D01*
X95899Y43035D01*
X95889Y43026D01*
X95862Y42998D01*
X95825Y42961D01*
X95778Y42906D01*
X95732Y42841D01*
X95677Y42776D01*
X95566Y42619D01*
X98719D01*
Y41861D01*
X94475D01*
Y41870D01*
Y41907D01*
Y41962D01*
X94484Y42036D01*
X94493Y42120D01*
X94512Y42212D01*
X94530Y42305D01*
X94567Y42406D01*
Y42416D01*
X94576Y42425D01*
X94595Y42480D01*
X94632Y42564D01*
X94687Y42674D01*
X94761Y42804D01*
X94854Y42952D01*
X94956Y43100D01*
X95085Y43257D01*
Y43266D01*
X95103Y43275D01*
X95150Y43331D01*
X95233Y43414D01*
X95353Y43534D01*
X95492Y43673D01*
X95667Y43839D01*
X95880Y44024D01*
X96111Y44219D01*
X96121Y44228D01*
X96157Y44255D01*
X96213Y44302D01*
X96278Y44357D01*
X96361Y44431D01*
X96462Y44514D01*
X96564Y44607D01*
X96684Y44708D01*
X96916Y44930D01*
X97147Y45152D01*
X97258Y45263D01*
X97359Y45374D01*
X97452Y45476D01*
X97526Y45578D01*
Y45587D01*
X97544Y45596D01*
X97563Y45624D01*
X97581Y45661D01*
X97646Y45763D01*
X97720Y45883D01*
X97785Y46031D01*
X97849Y46188D01*
X97886Y46363D01*
X97905Y46530D01*
Y46539D01*
Y46548D01*
X97896Y46604D01*
X97886Y46696D01*
X97859Y46798D01*
X97822Y46927D01*
X97757Y47057D01*
X97674Y47186D01*
X97563Y47316D01*
X97544Y47334D01*
X97498Y47371D01*
X97433Y47417D01*
X97332Y47482D01*
X97202Y47538D01*
X97054Y47593D01*
X96879Y47630D01*
X96684Y47639D01*
X96629D01*
X96592Y47630D01*
X96481Y47621D01*
X96352Y47593D01*
X96213Y47556D01*
X96056Y47491D01*
X95908Y47408D01*
X95769Y47297D01*
X95751Y47279D01*
X95714Y47232D01*
X95658Y47159D01*
X95603Y47048D01*
X95538Y46918D01*
X95483Y46752D01*
X95445Y46567D01*
X95427Y46354D01*
X94623Y46437D01*
Y46447D01*
X94632Y46474D01*
Y46521D01*
X94641Y46585D01*
X94660Y46659D01*
X94678Y46743D01*
X94706Y46844D01*
X94734Y46946D01*
X94808Y47168D01*
X94918Y47390D01*
X94983Y47501D01*
X95066Y47612D01*
X95150Y47713D01*
X95242Y47806D01*
X95251Y47815D01*
X95270Y47824D01*
X95298Y47852D01*
X95344Y47880D01*
X95399Y47917D01*
X95464Y47954D01*
X95538Y48000D01*
X95630Y48046D01*
X95732Y48092D01*
X95843Y48139D01*
X95963Y48176D01*
X96093Y48213D01*
X96231Y48240D01*
X96379Y48268D01*
X96537Y48277D01*
X96703Y48286D01*
X96795D01*
X96860Y48277D01*
D02*
G37*
D11*
X46750Y13750D02*
Y69750D01*
Y13750D02*
X133250D01*
Y69750D01*
X46750D02*
X133250D01*
M02*
