G04*
G04 #@! TF.GenerationSoftware,Altium Limited,Altium Designer,22.9.1 (49)*
G04*
G04 Layer_Color=2752767*
%FSLAX44Y44*%
%MOMM*%
G71*
G04*
G04 #@! TF.SameCoordinates,166B4888-961C-4D6F-8319-6358E2314730*
G04*
G04*
G04 #@! TF.FilePolarity,Positive*
G04*
G01*
G75*
%ADD32C,0.0508*%
%ADD33C,0.0677*%
D32*
X490570Y120269D02*
Y124333D01*
X494634D01*
Y120269D01*
X490570D01*
Y145669D02*
Y149733D01*
X494634D01*
Y145669D01*
X490570D01*
X515970Y120269D02*
Y124333D01*
X520034D01*
Y120269D01*
X515970D01*
Y145669D02*
Y149733D01*
X520034D01*
Y145669D01*
X515970D01*
X541370Y120269D02*
Y124333D01*
X545434D01*
Y120269D01*
X541370D01*
Y145669D02*
Y149733D01*
X545434D01*
Y145669D01*
X541370D01*
X566770Y120269D02*
Y124333D01*
X570834D01*
Y120269D01*
X566770D01*
Y145669D02*
Y149733D01*
X570834D01*
Y145669D01*
X566770D01*
X465170D02*
Y149733D01*
X469234D01*
Y145669D01*
X465170D01*
Y120269D02*
Y124333D01*
X469234D01*
Y120269D01*
X465170D01*
X439770Y145669D02*
Y149733D01*
X443834D01*
Y145669D01*
X439770D01*
Y120269D02*
Y124333D01*
X443834D01*
Y120269D01*
X439770D01*
X414370Y145669D02*
Y149733D01*
X418434D01*
Y145669D01*
X414370D01*
Y120269D02*
Y124333D01*
X418434D01*
Y120269D01*
X414370D01*
X388970Y145669D02*
Y149733D01*
X393034D01*
Y145669D01*
X388970D01*
Y120269D02*
Y124333D01*
X393034D01*
Y120269D01*
X388970D01*
X363570Y145669D02*
Y149733D01*
X367634D01*
Y145669D01*
X363570D01*
Y120269D02*
Y124333D01*
X367634D01*
Y120269D01*
X363570D01*
X338170Y145669D02*
Y149733D01*
X342234D01*
Y145669D01*
X338170D01*
Y120269D02*
Y124333D01*
X342234D01*
Y120269D01*
X338170D01*
X312770Y145669D02*
Y149733D01*
X316834D01*
Y145669D01*
X312770D01*
Y120269D02*
Y124333D01*
X316834D01*
Y120269D01*
X312770D01*
X287370Y145669D02*
Y149733D01*
X291434D01*
Y145669D01*
X287370D01*
Y120269D02*
Y124333D01*
X291434D01*
Y120269D01*
X287370D01*
X261970Y145669D02*
Y149733D01*
X266034D01*
Y145669D01*
X261970D01*
Y120269D02*
Y124333D01*
X266034D01*
Y120269D01*
X261970D01*
X236570Y145669D02*
Y149733D01*
X240634D01*
Y145669D01*
X236570D01*
Y120269D02*
Y124333D01*
X240634D01*
Y120269D01*
X236570D01*
X211170Y145669D02*
Y149733D01*
X215234D01*
Y145669D01*
X211170D01*
Y120269D02*
Y124333D01*
X215234D01*
Y120269D01*
X211170D01*
X185770Y145669D02*
Y149733D01*
X189834D01*
Y145669D01*
X185770D01*
Y120269D02*
Y124333D01*
X189834D01*
Y120269D01*
X185770D01*
X160370Y145669D02*
Y149733D01*
X164434D01*
Y145669D01*
X160370D01*
Y120269D02*
Y124333D01*
X164434D01*
Y120269D01*
X160370D01*
X134970Y145669D02*
Y149733D01*
X139034D01*
Y145669D01*
X134970D01*
Y120269D02*
Y124333D01*
X139034D01*
Y120269D01*
X134970D01*
X109570Y145669D02*
Y149733D01*
X113634D01*
Y145669D01*
X109570D01*
Y120269D02*
Y124333D01*
X113634D01*
Y120269D01*
X109570D01*
X84170Y145669D02*
Y149733D01*
X88234D01*
Y145669D01*
X84170D01*
Y120269D02*
Y124333D01*
X88234D01*
Y120269D01*
X84170D01*
X262500Y55468D02*
X260468Y59532D01*
X264532D01*
X262500Y55468D01*
X187500Y32968D02*
X185468Y37032D01*
X189532D01*
X187500Y32968D01*
X137500Y60468D02*
X135468Y64532D01*
X139532D01*
X137500Y60468D01*
X240000Y42968D02*
X237968Y47032D01*
X242032D01*
X240000Y42968D01*
X300000Y45468D02*
X297968Y49532D01*
X302032D01*
X300000Y45468D01*
X252500Y47968D02*
X250468Y52032D01*
X254532D01*
X252500Y47968D01*
X277500D02*
X275468Y52032D01*
X279532D01*
X277500Y47968D01*
X285000Y55468D02*
X282968Y59532D01*
X287032D01*
X285000Y55468D01*
X145000Y70468D02*
X142968Y74532D01*
X147032D01*
X145000Y70468D01*
X177500Y25468D02*
X175468Y29532D01*
X179532D01*
X177500Y25468D01*
D33*
X37032Y127500D02*
G03*
X37032Y127500I-2032J0D01*
G01*
X617032D02*
G03*
X617032Y127500I-2032J0D01*
G01*
M02*
