G04*
G04 #@! TF.GenerationSoftware,Altium Limited,Altium Designer,22.9.1 (49)*
G04*
G04 Layer_Color=16711935*
%FSLAX44Y44*%
%MOMM*%
G71*
G04*
G04 #@! TF.SameCoordinates,166B4888-961C-4D6F-8319-6358E2314730*
G04*
G04*
G04 #@! TF.FilePolarity,Negative*
G04*
G01*
G75*
%ADD20C,1.7032*%
%ADD21R,1.7032X1.7032*%
%ADD22C,6.2032*%
%ADD23C,0.7032*%
D20*
X492602Y122301D02*
D03*
Y147701D02*
D03*
X518002Y122301D02*
D03*
Y147701D02*
D03*
X543402Y122301D02*
D03*
Y147701D02*
D03*
X568802Y122301D02*
D03*
Y147701D02*
D03*
X467202D02*
D03*
Y122301D02*
D03*
X441802Y147701D02*
D03*
Y122301D02*
D03*
X416402Y147701D02*
D03*
Y122301D02*
D03*
X391002Y147701D02*
D03*
Y122301D02*
D03*
X365602Y147701D02*
D03*
Y122301D02*
D03*
X340202Y147701D02*
D03*
Y122301D02*
D03*
X314802Y147701D02*
D03*
Y122301D02*
D03*
X289402Y147701D02*
D03*
Y122301D02*
D03*
X264002Y147701D02*
D03*
Y122301D02*
D03*
X238602Y147701D02*
D03*
Y122301D02*
D03*
X213202Y147701D02*
D03*
Y122301D02*
D03*
X187802Y147701D02*
D03*
Y122301D02*
D03*
X162402Y147701D02*
D03*
Y122301D02*
D03*
X137002Y147701D02*
D03*
Y122301D02*
D03*
X111602Y147701D02*
D03*
Y122301D02*
D03*
X86202Y147701D02*
D03*
D21*
Y122301D02*
D03*
D22*
X35000Y127500D02*
D03*
X615000D02*
D03*
D23*
X262500Y57500D02*
D03*
X187500Y35000D02*
D03*
X137500Y62500D02*
D03*
X240000Y45000D02*
D03*
X300000Y47500D02*
D03*
X252500Y50000D02*
D03*
X277500D02*
D03*
X285000Y57500D02*
D03*
X145000Y72500D02*
D03*
X177500Y27500D02*
D03*
M02*
