M48
;Layer_Color=9474304
;FILE_FORMAT=4:4
METRIC,LZ
;TYPE=PLATED
T1F00S00C0.4000
T2F00S00C0.9000
T3F00S00C2.7500
%
T01
X0024Y00045
X002525Y0005
X002625Y000575
X00285
X002775Y0005
X003Y000475
X001875Y00035
X001775Y000275
X001375Y000625
X00145Y000725
T02
X00238602Y00122301
X00264002
X00289402
X00314802
X00340202
X00365602
X00391002
X00416402
X00441802
X00467202
X00492602
Y00147701
X00518002
Y00122301
X00543402
Y00147701
X00568802
Y00122301
X00467202Y00147701
X00441802
X00416402
X00391002
X00365602
X00340202
X00314802
X00289402
X00264002
X00238602
X00213202
Y00122301
X00187802
Y00147701
X00162402
Y00122301
X00137002
Y00147701
X00111602
Y00122301
X00086202
Y00147701
T03
X00615Y001275
X00035
M30
